<?xml version="1.0" standalone="no"?>
<!DOCTYPE svg PUBLIC "-//W3C//DTD SVG 20010904//EN"
 "http://www.w3.org/TR/2001/REC-SVG-20010904/DTD/svg10.dtd">
<svg version="1.0" xmlns="http://www.w3.org/2000/svg"
 width="512.000000pt" height="512.000000pt" viewBox="0 0 512.000000 512.000000"
 preserveAspectRatio="xMidYMid meet">
<metadata>
Created by potrace 1.14, written by Peter Selinger 2001-2017
</metadata>
<g transform="translate(0.000000,512.000000) scale(0.100000,-0.100000)"
fill="#000000" stroke="none">
<path d="M0 2560 l0 -2560 2560 0 2560 0 0 2560 0 2560 -2560 0 -2560 0 0
-2560z m3822 805 c114 -17 258 -62 258 -81 0 -7 -12 -45 -26 -84 -21 -57 -30
-70 -43 -64 -123 52 -262 77 -395 72 -91 -3 -110 -7 -162 -33 -85 -44 -118
-94 -122 -191 -9 -166 53 -228 337 -339 184 -71 270 -117 337 -178 95 -87 137
-216 115 -358 -28 -177 -149 -299 -351 -355 -51 -14 -103 -18 -235 -18 -174
-1 -286 15 -376 51 l-39 15 0 89 c0 49 1 89 3 89 1 0 25 -9 54 -20 154 -58
435 -83 553 -47 164 49 241 177 197 328 -30 101 -96 150 -336 244 -200 78
-276 122 -346 197 -79 85 -100 145 -100 288 0 107 2 119 29 173 16 32 51 77
76 101 126 118 321 159 572 121z m-2742 -725 l0 -720 355 0 355 0 0 -85 0 -85
-450 0 -450 0 0 805 0 805 95 0 95 0 0 -720z m1160 0 l0 -720 355 0 355 0 0
-85 0 -85 -450 0 -450 0 0 805 0 805 95 0 95 0 0 -720z"/>
</g>
</svg>
